<svg width="80" height="83" viewBox="0 0 80 83" fill="none" xmlns="http://www.w3.org/2000/svg">
<path fill-rule="evenodd" clip-rule="evenodd" d="M33.471 54H12.471V54.3001H33.471V54ZM38.421 56.3001C38.4538 56.4616 38.471 56.6288 38.471 56.8001C38.471 58.1808 37.3517 59.3001 35.971 59.3001L9.97099 59.3001C8.59027 59.3001 7.47099 58.1808 7.47099 56.8001V54H1.04999C1.29325 56.7281 2.66458 59.4006 5.39672 61.2629L34.5887 81.1608C37.9864 83.4768 42.4555 83.4768 45.8532 81.1608L75.0452 61.2629C77.7773 59.4006 79.1487 56.7281 79.3919 54H73.471V56.9999C73.471 58.3806 72.3517 59.4999 70.971 59.4999C69.5903 59.4999 68.471 58.3806 68.471 56.9999V54H47.471V56.9999C47.471 58.3806 46.3517 59.4999 44.971 59.4999C43.5903 59.4999 42.471 58.3806 42.471 56.9999V54H38.471V55.8001C38.471 55.9713 38.4538 56.1385 38.421 56.3001Z" fill="url(#paint0_linear_2_257)"/>
<path fill-rule="evenodd" clip-rule="evenodd" d="M12.5001 31H33.5001V31.8001C33.5001 33.1808 34.6194 34.3001 36.0001 34.3001C37.3808 34.3001 38.5001 33.1808 38.5001 31.8001V31H42.5001V37.9999V54H38.5001V44.8001C38.5001 43.4194 37.3808 42.3001 36.0001 42.3001C34.6194 42.3001 33.5001 43.4194 33.5001 44.8001V54H12.5001V31ZM7.50009 31H1V54H7.50009V31ZM47.5001 54V40.4999H68.5001V54H47.5001ZM47.5001 31V35.4999H68.5001V31H47.5001ZM73.5001 37.9999V54H79.5V31H73.5001V37.9999Z" fill="url(#paint1_linear_2_257)"/>
<path fill-rule="evenodd" clip-rule="evenodd" d="M34.6848 1.82843C38.0112 -0.476142 42.4181 -0.476147 45.7444 1.82843L75.3008 22.3057C78.471 24.5021 79.7268 27.8233 79.4659 30.9972H73.5147V27.9972C73.5147 26.6164 72.3954 25.4972 71.0147 25.4972C69.634 25.4972 68.5147 26.6164 68.5147 27.9972V30.9972H47.5147V9.99716C47.5147 8.61645 46.3954 7.49716 45.0147 7.49716C43.634 7.49716 42.5147 8.61645 42.5147 9.99716V30.9972H38.5147V10.7973C38.5147 10.1362 38.2581 9.53505 37.8391 9.08799C37.7694 8.91007 37.6782 8.73737 37.5646 8.57347C36.7784 7.43851 35.2209 7.15586 34.0859 7.94213L8.59103 25.6046C7.86922 26.1047 7.49214 26.9166 7.51551 27.7335C7.51498 27.7547 7.51471 27.776 7.51471 27.7973V30.9972H1.01462V31.4778C0.580288 28.1624 1.79784 24.6132 5.12844 22.3057L34.6848 1.82843ZM12.5147 28.969L33.5147 14.4205V30.9972H12.5147V28.969Z" fill="url(#paint2_linear_2_257)"/>
<defs>
<linearGradient id="paint0_linear_2_257" x1="8.02973" y1="69.1726" x2="115.219" y2="69.1726" gradientUnits="userSpaceOnUse">
<stop stop-color="#FFEADE"/>
<stop offset="0.525477" stop-color="#6A44FF" stop-opacity="0.298659"/>
<stop offset="0.948912" stop-color="#2400FF" stop-opacity="0"/>
</linearGradient>
<linearGradient id="paint1_linear_2_257" x1="7.99383" y1="43.076" x2="115.399" y2="43.076" gradientUnits="userSpaceOnUse">
<stop stop-color="#FFEADE"/>
<stop offset="0.525477" stop-color="#6A44FF" stop-opacity="0.298659"/>
<stop offset="0.948912" stop-color="#2400FF" stop-opacity="0"/>
</linearGradient>
<linearGradient id="paint2_linear_2_257" x1="7.92999" y1="16.5748" x2="115.43" y2="16.5748" gradientUnits="userSpaceOnUse">
<stop stop-color="#FFEADE"/>
<stop offset="0.525477" stop-color="#6A44FF" stop-opacity="0.298659"/>
<stop offset="0.948912" stop-color="#2400FF" stop-opacity="0"/>
</linearGradient>
</defs>
</svg>
